<svg id="Layer_1" data-name="Layer 1" xmlns="http://www.w3.org/2000/svg" viewBox="0 0 339.23 131.64"><title>cafe_logo_solo</title><path d="M127.92,387.82V436h-7.8v-3q0-36,0-72.07c0-18.31,12.16-30.47,30.48-30.48a68.85,68.85,0,0,1,10.31.37c14.64,2.22,24.47,14.07,24.5,29.39,0,23.56,0,47.12,0,70.68,0,1.66,0,3.32,0,5.19h-7.71V387.82Zm0-8.22h49.69c0-7,0-13.83,0-20.61a20.82,20.82,0,0,0-20.54-20.78q-4.33-.08-8.66,0c-10.64.19-19.7,8.27-20.38,18.84C127.58,364.46,128,371.92,128,379.6Z" transform="translate(-24.44 -307.14)"/><path d="M320.42,381.16h43.17v7.76H320.26c0,3,0,5.57,0,8.15.07,5.3-.3,10.66.38,15.89,1.39,10.74,10.38,18,21.2,17.84,7.15-.09,14.31,0,21.66,0v8c-2.14,0-4.25,0-6.36,0-6-.08-11.94.18-17.86-.33-15.69-1.34-26.56-13.13-26.76-29q-.29-24.3,0-48.6c.24-17.09,12.73-29.06,29.91-29.08h21.08v7.78H360c-6.05,0-12.1,0-18.16,0-11.15-.05-20.28,7.41-21.29,18.41C319.86,365.47,320.42,373.14,320.42,381.16Z" transform="translate(-24.44 -307.14)"/><path d="M79.26,421.48l6.18,4c-4.51,6.6-10.34,11.35-18,12.38a68.19,68.19,0,0,1-20.5,0c-13.18-2.3-22.37-14.14-22.46-27.57-.1-16.11,0-32.22,0-48.32,0-17.12,10.86-29,28-30A64.33,64.33,0,0,1,68,332.9c7.44,1.38,13.14,5.81,17.43,12.36l-6.27,4.08L77.3,347.2a19.85,19.85,0,0,0-14.23-7.37,85.9,85.9,0,0,0-12,0,20.62,20.62,0,0,0-18.87,20.87q.09,24.58,0,49.16a21,21,0,0,0,21,21.21,95.31,95.31,0,0,0,10.6-.2C69.48,430.28,72.06,428.53,79.26,421.48Z" transform="translate(-24.44 -307.14)"/><path d="M233.25,379.66h43.06v7.79H233.18v48.47h-7.72c-.05-1-.13-1.95-.13-2.85q0-36.32,0-72.65c0-15.14,9.23-27.06,23.34-29.54,5.08-.9,10.39-.51,15.6-.62,3.88-.08,7.77,0,11.82,0V338h-4.53c-5.59,0-11.18,0-16.76,0-11.47-.07-20.47,7.47-21.42,18.85C232.74,364.36,233.25,371.91,233.25,379.66Z" transform="translate(-24.44 -307.14)"/><path d="M363.67,307.14v7.34H315.48v-7.34Z" transform="translate(-24.44 -307.14)"/></svg>